<?xml version="1.0" encoding="utf-8"?>
<!-- Generator: Adobe Illustrator 24.1.0, SVG Export Plug-In . SVG Version: 6.00 Build 0)  -->
<svg version="1.1" id="Layer_1" xmlns="http://www.w3.org/2000/svg" xmlns:xlink="http://www.w3.org/1999/xlink" x="0px" y="0px"
	 viewBox="0 0 21.1 9" style="enable-background:new 0 0 21.1 9;" xml:space="preserve">
<style type="text/css">
	.st0{fill:#0089F2;}
</style>
<g id="Page-1">
	<g id="Home" transform="translate(-1517.000000, -4879.000000)">
		<g id="Recent-Articles" transform="translate(0.000000, 4765.000000)">
			<g id="Button" transform="translate(1405.000000, 114.000000)">
				<g id="Group-8">
					<g id="Group-7-Copy" transform="translate(112.000000, 0.000000)">
						<path id="Combined-Shape" class="st0" d="M17.7,5.5H1c-0.6,0-1-0.4-1-1s0.4-1,1-1h16.7l-1.8-1.8c-0.4-0.4-0.4-1,0-1.4
							c0.4-0.4,1-0.4,1.4,0l3.5,3.5c0.4,0.4,0.4,1,0,1.4l-3.5,3.5c-0.4,0.4-1,0.4-1.4,0c-0.4-0.4-0.4-1,0-1.4L17.7,5.5z"/>
					</g>
				</g>
			</g>
		</g>
	</g>
</g>
</svg>
