<svg xmlns="http://www.w3.org/2000/svg" width="222.48" height="240.64" viewBox="0 0 222.48 240.64">
  <defs>
    <style>
      .b931b9b5-d0c8-4a92-87bc-f2ca9bcc2884 {
        fill: #0089f2;
      }
    </style>
  </defs>
  <title>sebastianaro_4</title>
  <g id="ac9bdc2f-d8d3-452d-ba25-41235035c256" data-name="Layer 2">
    <g id="ef589a9e-d631-4ca0-a525-8104d9e590f8" data-name="Layer 1">
      <g>
        <path class="b931b9b5-d0c8-4a92-87bc-f2ca9bcc2884" d="M116.9,7.14l60.76,60.79h0l2.15,2.14.38.39h0l1.69,1.69h0l-.12-9.24L121.46,2.58a9.14,9.14,0,0,0-12.54-.18L0,111.32l.12,9L113.36,7.07A2.59,2.59,0,0,1,116.9,7.14Z"/>
        <polygon class="b931b9b5-d0c8-4a92-87bc-f2ca9bcc2884" points="220.37 130.35 207.19 143.53 130.22 220.49 119.97 230.75 120.1 240.64 122.06 238.68 135.24 225.5 212.2 148.53 222.48 138.26 222.35 128.37 220.37 130.35"/>
        <path class="b931b9b5-d0c8-4a92-87bc-f2ca9bcc2884" d="M195.33,79.41A8.75,8.75,0,0,0,188.71,82L80.19,190.48l.13,9.89h0L193.67,87a1.73,1.73,0,0,1,1.24-.53,2,2,0,0,1,1.5.6l25.71,25.71h0L222,102.65,201.57,82.24A9.39,9.39,0,0,0,195.33,79.41Z"/>
        <path class="b931b9b5-d0c8-4a92-87bc-f2ca9bcc2884" d="M36.51,154.29a9.39,9.39,0,0,0,.12,13.05l16.9,16.92h0l8.53,8.54-.13-10.16L41.65,162.33a2.32,2.32,0,0,1,0-3.14L142.4,58.42l-.13-9.89Z"/>
      </g>
    </g>
  </g>
</svg>
